<?xml version="1.0" encoding="utf-8"?>
<!-- Generator: Adobe Illustrator 25.2.3, SVG Export Plug-In . SVG Version: 6.00 Build 0)  -->
<svg version="1.1" id="Layer_1" xmlns="http://www.w3.org/2000/svg" xmlns:xlink="http://www.w3.org/1999/xlink" x="0px" y="0px"
	 viewBox="0 0 17.07 9.93" style="enable-background:new 0 0 17.07 9.93;" xml:space="preserve">
<style type="text/css">
	.st0{fill:#E72684;}
</style>
<path class="st0" d="M16.13,1.7H1.01c-0.38,0-0.68-0.31-0.68-0.68v0c0-0.38,0.31-0.68,0.68-0.68h15.12c0.38,0,0.68,0.31,0.68,0.68v0
	C16.81,1.39,16.51,1.7,16.13,1.7z"/>
<path class="st0" d="M16.13,5.61H1.01c-0.38,0-0.68-0.31-0.68-0.68v0c0-0.38,0.31-0.68,0.68-0.68h15.12c0.38,0,0.68,0.31,0.68,0.68
	v0C16.81,5.3,16.51,5.61,16.13,5.61z"/>
<path class="st0" d="M16.13,9.52H1.01c-0.38,0-0.68-0.31-0.68-0.68v0c0-0.38,0.31-0.68,0.68-0.68h15.12c0.38,0,0.68,0.31,0.68,0.68
	v0C16.81,9.21,16.51,9.52,16.13,9.52z"/>
</svg>
