<?xml version="1.0" encoding="utf-8"?>
<!-- Generator: Adobe Illustrator 24.1.2, SVG Export Plug-In . SVG Version: 6.00 Build 0)  -->
<svg fill="rgb(118, 215, 221)" version="1.1" id="Layer_1" xmlns="http://www.w3.org/2000/svg" xmlns:xlink="http://www.w3.org/1999/xlink" x="0px" y="0px"
	 viewBox="0 0 1900 1075" style="enable-background:new 0 0 1900 1075;" xml:space="preserve">
<g>
	<path d="M0,964C0,656,0,348,0,40c11.3,8,22.2,16.5,33.9,23.8c82.2,52.1,172.8,77.5,269.4,83c69.8,4,138.8-2.9,206.7-18.9
		c34.9-8.2,69.4-18.4,104.1-27.9C751.6,62.6,891.2,36.8,1033.2,25c52.4-4.4,105-6.9,157.6-8.9c60.8-2.3,121.6-1.1,182.3,2.9
		c46,3,92.1,6.3,137.9,11.6c47.3,5.5,94.4,12.6,141.3,20.6c68.3,11.5,135.7,27.3,202,47.3c15.3,4.6,30.4,9.7,45.6,14.5
		c0,289,0,578,0,867c-15.2-5.3-30.3-11.1-45.6-16c-105.1-33-213.2-48.2-323-51.9c-78.3-2.6-156.2,1.6-233.9,11.7
		c-62.8,8.2-124.9,19.8-186.2,35.7c-114.8,29.8-230.6,54.5-348.2,70.7c-71,9.8-142.3,16.6-213.9,19.5c-85.4,3.4-170.6,1.4-255.5-8.5
		c-55.1-6.4-109.7-16-163.4-30.3C85.6,999,41.8,984.4,0,964z"/>
</g>
</svg>
