<?xml version="1.0" encoding="utf-8"?>
<!-- Generator: Adobe Illustrator 24.1.2, SVG Export Plug-In . SVG Version: 6.00 Build 0)  -->
<svg fill="#e81f85" version="1.1" id="Layer_1" xmlns="http://www.w3.org/2000/svg" xmlns:xlink="http://www.w3.org/1999/xlink" x="0px" y="0px"
	 viewBox="0 0 800 53" style="enable-background:new 0 0 800 53;" xml:space="preserve" preserveAspectRatio="none">
<g>
	<path d="M779,0c7,0,14,0,21,0c0,1.7,0,3.3,0,5c-1.4,10.9-2.7,21.7-4.1,33C532,42.3,268.2,46.7,4.3,51c0-10.8,0-21,0-31.4
		c1.8-0.1,3.3-0.3,4.7-0.3C83,17.5,157,15.7,231,13.9c105.9-2.6,211.9-5.3,317.8-7.8c75-1.8,149.9-3.6,224.9-5.4
		C775.4,0.7,777.2,0.2,779,0z"/>
</g>
</svg>
