<?xml version="1.0" encoding="utf-8"?>
<!-- Generator: Adobe Illustrator 24.1.2, SVG Export Plug-In . SVG Version: 6.00 Build 0)  -->
<svg fill="#effafc" version="1.1" id="Layer_1" xmlns="http://www.w3.org/2000/svg" xmlns:xlink="http://www.w3.org/1999/xlink" x="0px" y="0px"
	 viewBox="0 0 2000 756" style="enable-background:new 0 0 2000 756;" xml:space="preserve">
<g>
	<path d="M1974,0c8.7,0,17.3,0,26,0c0,252,0,504,0,756c-666.7,0-1333.3,0-2000,0C0,516.7,0,277.3,0,38c1.2-0.1,2.3-0.1,3.5-0.2
		c21.7-3.2,43.4-6.7,65.2-9.5c54.7-7.1,109.6-12,164.7-14.5c80.9-3.6,161.7-2.5,242.2,4.8c53,4.8,106,11.3,158.7,18.6
		c77,10.7,153.3,25.9,228.8,44.6c76.5,18.9,153.8,31.9,232.4,37.1c64.8,4.3,129.6,4.3,194.3,0.9c70.1-3.7,139.8-11.3,209.2-21.5
		c77.8-11.5,154.9-26,231.7-42.9c68.9-15.2,137.6-31,206.5-46.6C1949.5,6,1961.7,2.9,1974,0z"/>
</g>
</svg>
