<?xml version="1.0" encoding="utf-8"?>
<!-- Generator: Adobe Illustrator 24.1.2, SVG Export Plug-In . SVG Version: 6.00 Build 0)  -->
<svg fill="#33CED6" version="1.1" id="Layer_1" xmlns="http://www.w3.org/2000/svg" xmlns:xlink="http://www.w3.org/1999/xlink" x="0px" y="0px"
	 viewBox="0 0 160 127" style="enable-background:new 0 0 160 127;" xml:space="preserve">
<g>
	<path d="M65.6,30.3C46,34.4,38.8,46.1,42.1,69.1c4.7,0,9.5,0,14.2,0c4.6,0,9.3,0,14.3,0c0,19,0,37.8,0,56.8
		c-1.1,0.1-2.2,0.3-3.3,0.3c-17.8,0-35.7,0.1-53.5-0.1c-1.6,0-4.2-1.2-4.5-2.4C1.7,98.6-2.7,73,3.3,47C9.9,18,32.6,0.8,62.4,0.8
		c1,0,2,0.1,3.2,0.2C65.6,10.9,65.6,20.6,65.6,30.3z"/>
	<path d="M154,1c0,9.9,0,19.5,0,29.6c-7.6,0.5-14.7,2.6-19,9.7c-5.3,8.7-5.1,18.4-4.7,28.6c9.6,0,19,0,28.7,0c0,19.3,0,38,0,57.3
		c-4.6,0-9,0-13.5,0c-14.3,0-28.7,0.1-43-0.1c-1.6,0-4.2-1.1-4.5-2.3c-7.8-25.6-12.3-51.7-5.8-78.2c6.9-28.2,30-45.2,59.1-44.9
		C152.1,0.8,152.9,0.9,154,1z"/>
</g>
</svg>
