<?xml version="1.0" encoding="utf-8"?>
<!-- Generator: Adobe Illustrator 24.1.2, SVG Export Plug-In . SVG Version: 6.00 Build 0)  -->
<svg fill="rgb(236, 252, 253)" version="1.1" id="Layer_1" xmlns="http://www.w3.org/2000/svg" xmlns:xlink="http://www.w3.org/1999/xlink" x="0px" y="0px"
	 viewBox="0 0 1900 878" style="enable-background:new 0 0 1900 878;" xml:space="preserve">
<g>
	<path d="M0,869C0,579.3,0,289.7,0,0c633.3,0,1266.7,0,1900,0c0,239.3,0,478.7,0,718c-1.5-0.1-3-0.1-4.5-0.2
		c-22.6-1.9-45.1-4.7-67.7-5.6c-69.6-2.8-138.3,6.7-207,15.4c-34.5,4.4-69,9.1-103.5,13.4c-36.4,4.4-72.7,9-109.2,12.4
		c-34.3,3.2-68.7,6.3-103.1,7.3c-60.5,1.8-120.8-3.6-181.2-7.8c-52.7-3.7-105.4-7.3-158.1-9.9c-80.9-4-161.1,3.7-240.7,17.5
		c-64.9,11.3-129.1,26.5-193.3,41.2c-55.1,12.6-110.3,25.5-165.8,36.1c-67.3,12.8-135.4,19.9-203.6,25.2C108.3,867,54.2,869.4,0,869
		z"/>
</g>
</svg>
