<?xml version="1.0" encoding="utf-8"?>
<!-- Generator: Adobe Illustrator 24.1.2, SVG Export Plug-In . SVG Version: 6.00 Build 0)  -->
<svg fill="rgb(236, 252, 253)" version="1.1" id="Layer_1" xmlns="http://www.w3.org/2000/svg" xmlns:xlink="http://www.w3.org/1999/xlink" x="0px" y="0px"
	 viewBox="0 0 2000 763" style="enable-background:new 0 0 2000 763;" xml:space="preserve" preserveAspectRatio="none">
<g>
	<path d="M2000,31c0,224.3,0,448.7,0,673c-82.3-26.3-165.3-50-248.9-71.6c-93.2-24-186.9-45.9-281.7-62.4
		c-58.2-10.1-116.6-19.3-175.2-26.9c-45.9-5.9-92.1-9.6-138.3-12.8c-54.1-3.7-108.2-3.8-162.4-0.4c-39.9,2.5-79.6,7-118.8,15.5
		C755.2,571.3,635,594.2,513.3,608c-51.1,5.8-102.4,10.2-153.8,13.5c-56.4,3.7-112.9,3.4-169.3-1.4c-38.4-3.3-76.4-8.6-113.6-19.1
		c-24.8-7-48.7-15.9-70.1-30.8c-2.1-1.5-4.4-2.8-6.6-4.2c0-145.7,0-291.3,0-437c4.3-2.4,8.7-4.8,13-7.3c49.6-28,102.4-48,156.9-63.7
		C267.8,29.8,368,17.3,469.6,15.3c95.9-1.9,191,6.2,285.6,21.4c96.6,15.6,191.6,37.9,284.8,67.5c101.5,32.3,205.3,51.2,311.7,55.4
		c97.4,3.9,194.1-3.4,290.1-20.1c89.5-15.5,177.2-38.5,262.5-69.8C1936.6,57.9,1968.1,44,2000,31z"/>
</g>
</svg>
